The war for Earth has begun. An unstoppable alien threat, known as the Reapers has invaded and you are the only one who can save Earth from annihilation. See the battle begin first hand in this action-packed cinematic trailer.

Duration: 00:03:34.95, start: 0.000000, bitrate: 3793 kb/s
  Stream #0:0(und): Video: h264 (High) (avc1 / 0x31637661), yuv420p, 1920x1080, 3640 kb/s, 24 fps, 24 tbr, 48 tbn, 48 tbc
  Stream #0:1(und): Audio: aac (mp4a / 0x6134706D), 44100 Hz, stereo, s16, 147 kb/s